<?xml version="1.0" standalone="no"?><!DOCTYPE svg PUBLIC "-//W3C//DTD SVG 1.1//EN" "http://www.w3.org/Graphics/SVG/1.1/DTD/svg11.dtd"><svg t="1685779929526" class="icon" viewBox="0 0 1024 1024" version="1.1" xmlns="http://www.w3.org/2000/svg" p-id="28750" width="64" height="64" xmlns:xlink="http://www.w3.org/1999/xlink"><path d="M184.32 757.76h655.36c39.58784 0 71.68-32.09216 71.68-71.68V215.04c0-39.58784-32.09216-71.68-71.68-71.68H184.32c-39.58784 0-71.68 32.09216-71.68 71.68v471.04c0 39.58784 32.09216 71.68 71.68 71.68z m655.36-61.44H184.32a10.24 10.24 0 0 1-10.24-10.24V215.04a10.24 10.24 0 0 1 10.24-10.24h655.36a10.24 10.24 0 0 1 10.24 10.24v471.04a10.24 10.24 0 0 1-10.24 10.24zM634.88 819.2a30.72 30.72 0 0 1 1.152 61.41952L634.88 880.64H389.12a30.72 30.72 0 0 1-1.152-61.41952L389.12 819.2h245.76z" fill="#000000" p-id="28751"></path><path d="M419.84 327.68v245.76c0 24.53504 27.3408 39.168 47.75936 25.55904l184.32-122.88c18.24256-12.16 18.24256-38.9632 0-51.11808l-184.32-122.88C447.18592 288.50688 419.84 303.14496 419.84 327.68z m61.44 57.40032L579.49184 450.56 481.28 516.03456V385.08032z" fill="#000000" p-id="28752"></path></svg>