<?xml version="1.0" standalone="no"?><!DOCTYPE svg PUBLIC "-//W3C//DTD SVG 1.1//EN" "http://www.w3.org/Graphics/SVG/1.1/DTD/svg11.dtd"><svg t="1662629598775" class="icon" viewBox="0 0 1024 1024" version="1.1" xmlns="http://www.w3.org/2000/svg" p-id="7104" xmlns:xlink="http://www.w3.org/1999/xlink" width="16" height="16"><path d="M887.1 469.9L535 117.8c-14.1-14.1-36.9-14.1-50.9 0-14.1 14.1-14.1 36.9 0 50.9l352.1 352.1c71.3 71.3 67.3 191.2-8.9 267.4-37.2 37.2-85.7 58.4-136.5 59.8-50.1 1.4-96.6-16.7-130.8-50.9L168.5 405.7c-20.5-20.5-31.3-48.3-30.5-78.4 0.9-30.8 13.8-60.3 36.4-82.9 22.6-22.6 52-35.5 82.9-36.4 30.1-0.8 57.9 10 78.4 30.4l391.2 391.2c14.4 14.4 13.1 39.1-3 55.2-16 16-40.8 17.4-55.2 3-0.1-0.1-0.2-0.1-0.2-0.2L316.9 336c-14.1-14.1-36.9-14.1-50.9 0-14.1 14.1-14.1 36.9 0 50.9l351.9 351.9 0.5 0.5c42.5 42 112.6 40.5 156.5-3.4 44-44 45.4-114.3 3.2-156.8L386.9 187.8l-0.2-0.2c-70.9-70.9-188.9-68.2-263.1 5.9-35.7 35.7-56.1 82.5-57.5 131.8-1.4 50.1 16.9 96.7 51.5 131.3L509 848c46.7 46.7 109 72.1 176.3 72.1 2.5 0 5 0 7.5-0.1 69.4-1.9 135.2-30.7 185.4-80.9 50.2-50.2 79-116.1 80.9-185.4 2-70.1-23.6-135.4-72-183.8z" p-id="7105"></path></svg>