<?xml version="1.0" standalone="no"?><!DOCTYPE svg PUBLIC "-//W3C//DTD SVG 1.1//EN" "http://www.w3.org/Graphics/SVG/1.1/DTD/svg11.dtd"><svg t="1693558655791" class="icon" viewBox="0 0 1024 1024" version="1.1" xmlns="http://www.w3.org/2000/svg" p-id="9208" xmlns:xlink="http://www.w3.org/1999/xlink" width="16" height="16"><path d="M512 95.744c-229.888 0-416.256 186.368-416.256 416.256s186.368 416.256 416.256 416.256 416.256-186.368 416.256-416.256-186.368-416.256-416.256-416.256z m55.808 657.408c-14.336 14.336-33.792 22.528-53.76 22.528-20.48 0-39.424-8.192-53.76-22.528-14.336-14.336-22.528-33.792-22.528-53.76 0-20.48 8.192-39.424 22.528-53.76 14.336-14.336 33.792-22.528 53.76-22.528 20.48 0 39.424 8.192 53.76 22.528 14.336 14.336 22.528 33.792 22.528 53.76-0.512 19.968-8.192 38.912-22.528 53.76z m-54.272-244.736c-50.688 0-98.816 19.968-134.656 55.808s-55.808 83.968-55.808 134.656c0 50.688 19.456 98.304 55.296 134.144 18.432 18.944 40.448 33.28 64 42.496-169.984-33.28-299.008-183.808-299.008-363.52 0-203.776 165.888-369.664 369.152-370.688h2.048c100.352 0.512 182.272 82.944 182.272 183.296 0.512 101.888-81.92 183.808-183.296 183.808z" p-id="9209"></path><path d="M513.536 248.832c-20.48 0-39.424 8.192-53.76 22.528-14.336 14.336-22.528 33.792-22.528 53.76 0 20.48 8.192 39.424 22.528 53.76 14.336 14.336 33.792 22.528 53.76 22.528 20.48 0 39.424-8.192 53.76-22.528 14.336-14.336 22.528-33.792 22.528-53.76 0-20.48-8.192-39.424-22.528-53.76-13.824-14.848-33.28-22.528-53.76-22.528z" p-id="9210"></path></svg>